<?xml version="1.0" encoding="utf-8" ?><svg xmlns="http://www.w3.org/2000/svg" xmlns:xlink="http://www.w3.org/1999/xlink" width="1024" height="1024" viewBox="0 0 1024 1024"><path fill="white" d="M0 0L1024 0L1024 1024L0 1024L0 0Z"/><path d="M281.654 268.683C284.787 270.113 294.266 276.632 297.631 278.856L328.192 299.055C363.657 322.509 399.251 345.766 434.974 368.826C486.099 349.992 540.777 351.12 591.884 369.104C597.225 364.933 607.497 358.631 613.425 354.763L652.128 329.522C682.651 309.661 714.252 287.944 744.993 268.849L744.699 498.626C744.652 516.021 744.238 534.678 745.566 551.953C747.409 575.924 745.333 595.524 737.012 618.214C728.88 638.922 716.534 657.714 700.757 673.399C651.566 722.806 585.495 738.905 517.435 739.482C447.925 740.072 378.151 725.14 327.316 674.601C305.725 653.137 291.064 628.608 284.334 598.525C281.637 586.279 280.498 573.743 280.942 561.212C281.174 554.629 281.973 547.542 281.977 541.027C281.987 523.404 281.879 505.772 281.877 488.148L281.654 268.683Z"/><path fill="white" d="M406.774 470.197C443.012 466.205 475.627 492.343 479.624 528.581C483.622 564.819 457.488 597.437 421.25 601.439C385.006 605.442 352.381 579.302 348.383 543.057C344.385 506.813 370.529 474.191 406.774 470.197Z"/><path d="M412.305 491.199C436.95 490.162 457.748 509.346 458.701 533.994C459.655 558.643 440.4 579.375 415.749 580.245C391.216 581.11 370.604 561.969 369.655 537.438C368.707 512.908 387.778 492.232 412.305 491.199Z"/><path fill="white" d="M605.253 470.323C641.418 466.348 673.963 492.428 677.963 528.59C681.963 564.752 655.905 597.315 619.746 601.341C583.552 605.37 550.95 579.281 546.945 543.083C542.941 506.886 569.053 474.302 605.253 470.323Z"/><path d="M611.032 491.197C635.548 490.587 655.918 509.965 656.53 534.481C657.143 558.997 637.766 579.368 613.25 579.983C588.732 580.597 568.358 561.218 567.745 536.699C567.132 512.181 586.513 491.808 611.032 491.197Z"/><path fill="white" d="M489.419 612.161C498.085 611.556 508.513 612.182 517.338 612.004C522.562 612.301 530.735 611.488 535.618 612.073C553.642 614.231 522.071 637.191 517.477 641.046C530.123 661.487 553.282 659.449 573.322 652.973C559.12 664.002 538.204 668.899 521.385 661.186C518.295 659.476 515.957 657.125 513.461 654.691C506.223 661.267 499.577 664.935 489.549 665.334C472.748 666.001 459 660.461 446.68 649.497C465.5 658.671 490.937 663.723 506.262 644.553C510.646 639.071 466.304 615.648 489.419 612.161Z"/></svg>