<?xml version="1.0" encoding="utf-8" ?><svg xmlns="http://www.w3.org/2000/svg" xmlns:xlink="http://www.w3.org/1999/xlink" width="1344" height="1482" viewBox="0 0 1344 1482"><path fill="white" d="M0 0L1344 0L1344 1482L0 1482L0 0Z"/><path d="M726.785 449.397C774.441 434.7 778.986 418.543 804.659 378.808C817.6 358.779 836.638 339.679 851.748 320.957C855.209 316.741 860.131 312.977 863.572 308.754C886.919 280.095 928.464 230.44 970.141 253.721C1003.25 272.218 1008.31 315.796 1009.74 350.047C1011.22 373.912 1015.67 395.892 1015.89 419.789C1015.23 450.009 1015.15 480.267 1014.03 510.474C1013.87 514.81 1011.94 520.06 1011.78 524.242C1010.23 563.472 999.818 601.593 1006.01 641.222C1010.22 668.157 1012.67 695.738 1016.17 722.813C1017.3 731.303 1020.36 740.295 1021.73 748.975L1022.25 750.972C1078.99 727.195 1137.9 708.977 1198.16 696.575C1202.95 695.56 1218.33 691.3 1221.95 693.075L1222.28 694.387C1219.98 697.531 1195.57 701.682 1189.92 702.873C1174.18 706.139 1158.54 709.844 1143.02 713.984C1111.38 722.602 1052.47 742.085 1022.48 755.663C1022.6 761.053 1022.96 767.184 1022 772.419C1021.6 778.192 1019.96 785.682 1018.87 791.506C1065.16 780.161 1111.04 767.691 1158.71 763.96C1171.27 762.977 1268.76 762.315 1274.14 769.559L1273.99 770.502C1269.39 772.322 1250.26 769.561 1243.68 769.149C1222.1 767.949 1200.48 767.401 1178.86 767.506C1134.35 768.14 1088.88 778.764 1045.8 789.252C1041.18 790.376 1020.67 795.212 1017.27 796.896C1011.01 822.618 1007.94 845.778 995.697 869.279C991.73 876.893 991.33 883.431 985.959 892.227C992.131 893.326 1002.22 893.08 1008.75 893.277C1021.19 893.638 1033.62 894.27 1046.04 895.174C1110.27 899.917 1166.27 911.211 1224.77 938.658C1230.21 941.207 1258.58 955.264 1260 959.597L1258.85 960.693C1256.2 960.01 1231.13 946.904 1227.43 944.984C1217.28 939.718 1209.02 936.722 1198.49 932.427C1148.45 912.022 1100.13 903.141 1046.29 899.652C1025.1 898.278 1004.17 896.913 982.642 897.187C977.201 906.049 971.751 915.002 966.294 923.864C962.229 930.466 953.981 937.651 951.535 944.29C940.481 942.045 853.573 920.11 848.179 922.629C847.606 924.74 847.567 923.686 848.598 925.871C849.835 926.666 850.225 926.977 851.711 927.313L949.298 948.44C943.797 957.063 939.228 958.452 933.532 964.788C923.911 975.779 912.463 984.626 901.867 994.601C897.881 998.353 892.214 1001.41 888.284 1005.09C872.518 1019.8 853.89 1033.01 834.431 1042.44C815.701 1051.52 796.415 1067.03 776.12 1071.37C765.012 1073.75 751.933 1075.14 740.394 1077.35C708.088 1083.55 673.712 1077.87 641.504 1073.87C629.02 1072.25 616.363 1072.82 603.887 1070.99C575.437 1066.95 547.062 1057.61 521.161 1045.25C512.477 1041.1 504.231 1031.85 496.158 1026.96C482.242 1018.53 469.045 1009.54 455.922 999.902C451.506 996.658 447.432 991.239 443.055 987.775C434.525 980.875 429.661 976.892 422.646 968.444C403.091 976.422 384.07 985.65 365.702 996.072C347.359 1006.55 329.783 1019.13 312.54 1031.12C272.24 1059.16 233.964 1089.14 201.075 1125.83C198.566 1128.63 188.867 1139.56 186.206 1139.87L185.585 1138.84C187.596 1132.04 204.283 1116.13 209.612 1110.5C240.141 1077.66 275.737 1052.28 311.812 1026.24C347.122 1000.76 378.892 982.094 418.972 964.998C409.215 956.359 393.179 934.506 388.094 922.893C385.451 923.216 369.654 928.57 366.259 929.602C331.148 940.272 299.468 952.247 267.077 969.676C257.886 974.621 230.776 991.494 222.737 993.65L222.015 993.188C224.871 988.554 238.54 980.773 243.825 977.688C271.117 961.419 299.894 947.782 329.768 936.961C348.464 930.252 367.635 924.908 386.413 918.48C381.448 899.802 375.729 885.906 370.737 868.423L370.355 867.993C365.639 866.62 340.376 869.314 333.775 870.023C245.32 879.513 164.928 910.522 87.8927 954.011C85.1806 955.542 78.8454 958.83 75.9252 957.955C78.2529 951.61 142.572 920.96 151.347 916.87C201.261 893.611 258.059 876.051 312.606 868.238C323.349 866.65 334.137 865.377 344.955 864.419C349.394 864.042 366.855 863.622 369.555 861.786C366.823 851.595 364.941 832.743 364.689 822.237C363.909 816.819 364.11 811.249 364.141 805.766C331.519 799.478 298.319 796.698 265.106 797.473C256.626 797.633 188.729 802.78 186.984 801.748L186.736 800.467C189.476 798.668 204.402 797.728 208.649 797.191C263.634 790.229 310.23 791.93 364.534 801.24C365.529 787.13 369.607 772.404 369.802 758.566C370.179 731.815 368.055 704.266 364.798 677.697C363.85 669.96 360.801 661.859 359.365 654.171C357.152 641.604 355.957 628.968 352.943 616.518C344.432 581.367 344.668 544.701 344.021 508.752C343.893 501.67 346.709 492.458 347.02 485.166C347.508 473.752 347.815 462.293 348.728 450.921C351.089 417.56 357.605 384.625 368.126 352.879C375.041 332.559 386.178 307.255 397.408 289.317C402.347 281.43 424.679 262.332 433.794 259.74C450.069 255.111 472.961 242.835 489.249 252.442C495.858 256.284 500.108 261.256 505.249 266.158C519.31 279.564 529.635 294.829 540.752 310.562C543.502 314.435 545.983 319.435 548.716 323.446C551.32 327.927 556.713 333.23 558.983 337.714C565.568 350.722 573.39 359.977 582.181 371.036C588.794 379.354 593.406 393.552 600.634 402.379C609.921 413.722 619.469 424.882 631.357 433.657C641.699 441.618 653.455 446.949 666.535 448.809C667.174 448.9 675.582 447.446 676.966 447.227C688.037 444.582 716.509 444.332 726.785 449.397Z"/><path fill="#2F2F2F" d="M1018.87 791.506C1065.16 780.161 1111.04 767.691 1158.71 763.96C1171.27 762.977 1268.76 762.315 1274.14 769.559L1273.99 770.502C1269.39 772.322 1250.26 769.561 1243.68 769.149C1222.1 767.949 1200.48 767.401 1178.86 767.506C1134.35 768.14 1088.88 778.764 1045.8 789.252C1041.18 790.376 1020.67 795.212 1017.27 796.896C1012.38 797.438 995.137 803.314 989.721 805.198C953.916 817.716 918.804 832.137 884.536 848.397C879.095 851.025 874.036 853.689 868.889 856.867C865.128 859.19 857.623 866.212 853.551 865.945L853.46 864.583C860.515 851.524 888.111 841.574 901.842 835.285C939.836 817.881 978.878 803.556 1018.87 791.506Z"/><path fill="#2F2F2F" d="M369.555 861.786C371.672 863.234 386.841 862.793 390.602 862.952C415.974 864.027 441.481 866.509 464.108 879.026C467.517 880.914 474.702 885.052 475.713 888.925C474.581 890.592 475.329 890.121 473.491 890.527C469.027 888.647 465.186 886.079 460.997 883.698C437.984 870.613 409.016 867.944 382.959 867.087C379.604 866.977 373.547 866.585 370.737 868.423L370.355 867.993C365.639 866.62 340.376 869.314 333.775 870.023C245.32 879.513 164.928 910.522 87.8927 954.011C85.1806 955.542 78.8454 958.83 75.9252 957.955C78.2529 951.61 142.572 920.96 151.347 916.87C201.261 893.611 258.059 876.051 312.606 868.238C323.349 866.65 334.137 865.377 344.955 864.419C349.394 864.042 366.855 863.622 369.555 861.786Z"/><path fill="#2F2F2F" d="M982.642 897.187C957.645 897.378 936.617 897.452 911.453 898.987C898.222 899.917 885.009 901.083 871.819 902.484C868.548 902.829 860.212 904.263 857.617 904.321C856.266 904.358 854.922 904.112 853.672 903.597C852.19 903.002 852.703 903.421 852.041 901.899C852.228 901.663 852.395 901.409 852.602 901.19C856.911 896.606 922.163 893.505 931.835 893.219C949.814 892.686 968.039 893.424 985.959 892.227C992.131 893.326 1002.22 893.08 1008.75 893.277C1021.19 893.638 1033.62 894.27 1046.04 895.174C1110.27 899.917 1166.27 911.211 1224.77 938.658C1230.21 941.207 1258.58 955.264 1260 959.597L1258.85 960.693C1256.2 960.01 1231.13 946.904 1227.43 944.984C1217.28 939.718 1209.02 936.722 1198.49 932.427C1148.45 912.022 1100.13 903.141 1046.29 899.652C1025.1 898.278 1004.17 896.913 982.642 897.187Z"/><path fill="#2F2F2F" d="M418.972 964.998C445.479 954.788 473.433 946.758 502.183 947.107C507.398 947.171 512.836 946.969 517.746 948.96L518.724 950.134C517.805 952.211 518.495 951.344 516.373 952.632C506.621 953.021 494.535 952.184 484.93 952.912C469.683 954.066 435.466 962.016 422.646 968.444C403.091 976.422 384.07 985.65 365.702 996.072C347.359 1006.55 329.783 1019.13 312.54 1031.12C272.24 1059.16 233.964 1089.14 201.075 1125.83C198.566 1128.63 188.867 1139.56 186.206 1139.87L185.585 1138.84C187.596 1132.04 204.283 1116.13 209.612 1110.5C240.141 1077.66 275.737 1052.28 311.812 1026.24C347.122 1000.76 378.892 982.094 418.972 964.998Z"/><path fill="#2F2F2F" d="M1022.25 750.972C1078.99 727.195 1137.9 708.977 1198.16 696.575C1202.95 695.56 1218.33 691.3 1221.95 693.075L1222.28 694.387C1219.98 697.531 1195.57 701.682 1189.92 702.873C1174.18 706.139 1158.54 709.844 1143.02 713.984C1111.38 722.602 1052.47 742.085 1022.48 755.663C1022.6 761.053 1022.96 767.184 1022 772.419C1021.61 768.178 1021.85 760.512 1021.85 756.022C972.738 774.485 924.532 799.384 881.251 828.555C878.909 830.133 877.328 830.511 874.71 829.768L874.574 828.364C877.422 823.946 886.822 818.598 891.686 815.49C913.425 801.641 936.039 789.216 959.387 778.294C978.998 769.203 998.893 760.69 1018.81 752.311C1021.52 751.17 1020.69 751.761 1021.73 748.975L1022.25 750.972Z"/><path fill="#2F2F2F" d="M386.413 918.48C411.847 910.668 474.819 891.313 501.03 896.733C503.038 898.3 502.527 897.34 503.093 899.396C502.654 900.101 502.348 901.104 501.578 901.098C470.144 900.889 440.014 907.003 410.011 916.092C403.091 918.188 395.045 920.263 388.094 922.893C385.451 923.216 369.654 928.57 366.259 929.602C331.148 940.272 299.468 952.247 267.077 969.676C257.886 974.621 230.776 991.494 222.737 993.65L222.015 993.188C224.871 988.554 238.54 980.773 243.825 977.688C271.117 961.419 299.894 947.782 329.768 936.961C348.464 930.252 367.635 924.908 386.413 918.48Z"/><path fill="#2F2F2F" d="M364.141 805.766C331.519 799.478 298.319 796.698 265.106 797.473C256.626 797.633 188.729 802.78 186.984 801.748L186.736 800.467C189.476 798.668 204.402 797.728 208.649 797.191C263.634 790.229 310.23 791.93 364.534 801.24C394.978 808.189 422.982 815.642 449.803 832.464C453.868 835.013 460.433 838.861 463.581 842.328C464.331 844.661 464.347 843.524 463.495 845.855L462.129 846.645C458.04 845.262 443.919 834.913 437.778 831.525C413.249 817.989 391.957 812.058 364.98 805.7C364.956 809.873 365.144 818.409 364.689 822.237C363.909 816.819 364.11 811.249 364.141 805.766Z"/><path fill="#2F2F2F" d="M676.966 447.227C688.037 444.582 716.509 444.332 726.785 449.397C713.845 451.466 690.23 449.729 676.966 447.227Z"/><path fill="#138C27" d="M557.171 604.492C578.445 602.476 594.306 604.111 613.362 613.423C619.017 615.885 625.593 618.483 630.714 621.862C664.715 644.293 674.023 694.058 653.665 728.717C650.563 735.345 647.979 742.598 643.519 748.466C634.722 760.043 623.215 768.487 611.254 776.593C600.132 784.131 592.565 786.081 579.555 788.136C554.437 791.365 524.746 792.537 503.76 776.628C485.95 763.127 469.171 720.279 473.052 698.485C476.665 678.197 485.13 648.082 496.483 630.641C502.794 620.945 525.822 609.587 537.098 606.882C540.736 606.151 552.492 605.125 557.171 604.492Z"/><path d="M551.193 614.506C590.338 611.368 635.413 623.951 642.364 668.45C646.544 695.202 646.844 714.524 630.801 737.406C616.294 758.097 606.967 766.848 581.421 771.33C556.58 772.712 533.373 772.718 512.459 758.214C499.138 748.976 490.972 733.062 488.156 717.811C484.799 699.634 486.879 665.821 497.921 650.891C512.206 631.577 527.183 619.055 551.193 614.506Z"/><path fill="#2F2F2F" d="M581.849 628.923C603.414 627.199 614.615 638.451 624.662 655.945C630.617 666.314 635.578 681.089 633.101 693.231C632.264 697.338 628.565 699.356 625.257 701.15C624.178 701.201 623.097 701.179 622.021 701.085C607.836 699.922 610.431 682.722 606.459 673.097C604.052 667.262 597.923 659.503 593.843 654.541C586.231 652.925 579.623 652.896 574.519 645.844C569.503 638.916 576.226 632.353 581.849 628.923Z"/><path fill="#138C27" d="M800.855 614.653C819.857 612.104 846.457 619.324 862.177 629.304C883.096 642.584 896.06 654.857 904.801 677.979C907.678 685.589 910.279 689.083 912.426 698.146C917.594 719.959 910.637 743.56 899.028 762.185C884.742 785.106 860.136 790.277 836.211 795.874C830.678 796.995 825.431 797.341 820.32 798.297C800.201 802.062 775.747 792.083 760.02 780.05C745.64 769.049 727.577 738.603 726.143 719.595C723.907 689.958 730.808 662.635 749.772 639.117C763.515 622.073 779.539 616.703 800.855 614.653Z"/><path d="M808.214 629.122C825.475 627.889 852.686 636.471 865.003 648.04C878.392 660.616 894.966 680.491 896.35 699.468C898.283 725.985 900.89 738.638 882.245 759.564C867.718 775.869 850.012 787.172 828.144 788.797C807.891 788.94 782.257 781.564 765.981 769.375C749.824 757.276 740.162 740.218 737.397 720.277C734.536 699.643 737.937 672.216 750.999 655.344C768.527 632.705 781.956 632.635 808.214 629.122Z"/><path fill="#2F2F2F" d="M823.008 636.782C838.68 635.607 864.704 656.29 870.001 670.655C874.832 683.758 887.885 701.72 870.881 709.605C851.506 710.94 854.171 688.951 845.814 676.783C837.125 664.133 822.508 664.042 814.493 652.377C810.034 645.887 817.185 639.515 823.008 636.782Z"/><path fill="#FC918E" d="M459.328 310.173C470.156 309.869 485.515 357.452 491.978 367.009C498.968 377.36 504.192 390.818 510.74 401.137C527.144 426.987 547.268 451.393 543.205 484.213C538.865 519.263 492.911 534.12 469.374 552.954L468.423 553.726C453.382 565.812 439.318 569.021 420.978 573.084C393.202 544.476 408.215 480.305 412.283 444.745C413.948 430.196 420.258 414.343 422.937 399.607C427.632 373.78 427.125 351.686 443.499 329.598C449.996 320.833 449.727 317.846 459.328 310.173Z"/><path fill="#FC918E" d="M931.639 305.251C967.629 303.521 965.897 379.974 966.881 403.349C967.75 423.995 968.191 444.893 968.124 465.596C965.667 490.098 959.06 516.608 955.113 540.978C953.763 547.355 950.623 549.352 945.848 553.113C940.935 550.844 936.133 548.513 931.536 545.644C910.203 532.329 841.122 481.266 833.372 459.974C829.588 449.577 831.614 426.878 836.71 416.956C841.077 408.455 847.533 400.143 852.842 392.141C854.97 380.52 865.738 369.184 873.375 360.898C875.899 358.159 876.53 356.51 879.993 354.787C880.05 354.733 880.107 354.679 880.164 354.625C886.067 345.296 892.808 340.5 899.658 331.145C901.115 327.635 907.758 320.135 910.651 317.405C918.496 310.002 920.674 305.499 931.639 305.251Z"/><path fill="#2D1715" d="M852.842 392.141C854.97 380.52 865.738 369.184 873.375 360.898C875.899 358.159 876.53 356.51 879.993 354.787C877.415 360.144 857.421 387.322 852.842 392.141Z"/><path fill="#2D1715" d="M899.658 331.145C901.115 327.635 907.758 320.135 910.651 317.405C918.496 310.002 920.674 305.499 931.639 305.251C927.076 308.379 921.111 312.344 917.054 315.917C910.934 321.307 906.241 326.154 899.658 331.145Z"/><path fill="#2F2F2F" d="M949.298 948.44L851.711 927.313C850.225 926.977 849.835 926.666 848.598 925.871C847.567 923.686 847.606 924.74 848.179 922.629C853.573 920.11 940.481 942.045 951.535 944.29C976.69 950.507 999.911 956.521 1024.43 964.845C1094.83 988.593 1149.86 1036.58 1202.44 1087.25C1224.6 1108.6 1243.69 1129.34 1261.74 1154.26C1265.03 1158.81 1279.3 1170.79 1279.27 1175.4C1272.72 1179.72 1237.06 1129.74 1232.26 1124.52C1195.83 1084.96 1153.97 1045.83 1110.59 1014.2C1061.7 978.54 1007.11 962.534 949.298 948.44Z"/></svg>