<svg xmlns="http://www.w3.org/2000/svg" viewBox="0 0 24 24" aria-hidden="true">
  <path fill-rule="evenodd" clip-rule="evenodd" d="M 0.00 12.96 L 0.30 11.02 L 0.63 9.94 L 1.20 8.62 L 2.32 6.80 L 2.98 6.00 L 4.31 4.71 L 6.09 3.49 L 7.12 2.98 L 8.53 2.46 L 9.94 2.13 L 11.11 1.99 L 13.36 2.04 L 14.72 2.27 L 16.12 2.70 L 18.19 3.68 L 20.02 5.04 L 20.98 6.00 L 21.63 6.80 L 22.85 8.81 L 23.32 9.94 L 23.65 11.02 L 23.93 12.52 L 23.93 15.47 L 23.55 17.34 L 22.99 18.89 L 22.01 20.67 L 21.00 21.96 L 20.93 21.94 L 20.84 21.14 L 20.55 20.39 L 20.04 19.59 L 19.36 18.87 L 17.91 17.84 L 16.83 17.32 L 15.89 16.99 L 15.05 17.65 L 14.16 18.12 L 13.08 18.45 L 12.23 18.54 L 10.92 18.45 L 9.80 18.12 L 8.91 17.65 L 8.02 16.95 L 7.03 17.23 L 5.11 18.21 L 3.96 19.17 L 3.21 20.16 L 2.88 20.86 L 2.74 21.61 L 2.67 21.63 L 2.04 20.81 L 1.34 19.64 L 0.49 17.62 L 0.02 15.42 L 0.00 12.96 Z M 12.54 17.02 L 12.98 16.95 L 13.97 16.57 L 14.95 15.87 L 15.54 15.23 L 16.15 14.25 L 16.52 13.22 L 16.71 11.81 L 16.66 11.06 L 16.48 10.12 L 15.96 8.91 L 15.40 8.11 L 14.77 7.48 L 14.25 7.10 L 13.50 6.73 L 12.66 6.49 L 11.67 6.45 L 10.88 6.59 L 9.70 7.10 L 9.19 7.48 L 8.32 8.39 L 7.76 9.38 L 7.48 10.12 L 7.29 11.06 L 7.29 12.47 L 7.66 13.92 L 8.04 14.67 L 8.74 15.61 L 9.33 16.15 L 9.75 16.43 L 10.78 16.90 L 11.44 17.04 L 12.54 17.02 Z"/>
</svg>
